<svg width="195" height="39" fill="none" xmlns="http://www.w3.org/2000/svg"><path d="M53.138 10.852c1.907 0 3.58.373 5.018 1.118 1.456.745 2.574 1.811 3.354 3.198.797 1.37 1.196 2.964 1.196 4.784 0 1.82-.399 3.415-1.196 4.784-.78 1.352-1.898 2.4-3.354 3.146-1.439.745-3.111 1.118-5.018 1.118h-6.344V10.852h6.344zm-.13 15.054c1.907 0 3.38-.52 4.42-1.56s1.56-2.505 1.56-4.394c0-1.89-.52-3.363-1.56-4.42-1.04-1.075-2.513-1.612-4.42-1.612h-2.574v11.986h2.574zm11.747-4.16c0-1.456.286-2.747.858-3.874.59-1.127 1.378-1.993 2.366-2.6 1.005-.607 2.123-.91 3.354-.91 1.074 0 2.01.217 2.808.65.814.433 1.464.98 1.95 1.638v-2.054h3.666V29H76.09v-2.106c-.468.676-1.118 1.24-1.95 1.69-.815.433-1.76.65-2.834.65a6.187 6.187 0 01-3.328-.936c-.988-.624-1.777-1.5-2.366-2.626-.572-1.144-.858-2.453-.858-3.926zm11.336.052c0-.884-.174-1.638-.52-2.262-.347-.641-.815-1.127-1.404-1.456a3.68 3.68 0 00-1.898-.52c-.676 0-1.3.165-1.872.494-.572.33-1.04.815-1.404 1.456-.347.624-.52 1.37-.52 2.236 0 .867.173 1.63.52 2.288.364.641.832 1.135 1.404 1.482.59.347 1.213.52 1.872.52a3.83 3.83 0 001.898-.494 3.782 3.782 0 001.404-1.456c.346-.641.52-1.404.52-2.288zm12.993 7.436c-1.179 0-2.236-.208-3.172-.624-.936-.433-1.681-1.014-2.236-1.742a4.433 4.433 0 01-.884-2.418h3.666c.07.555.338 1.014.806 1.378.485.364 1.083.546 1.794.546.693 0 1.23-.139 1.612-.416.398-.277.598-.633.598-1.066 0-.468-.243-.815-.728-1.04-.468-.243-1.222-.503-2.262-.78-1.075-.26-1.959-.529-2.652-.806a4.714 4.714 0 01-1.768-1.274c-.486-.572-.728-1.343-.728-2.314 0-.797.225-1.525.676-2.184.468-.659 1.127-1.179 1.976-1.56.867-.381 1.88-.572 3.042-.572 1.716 0 3.085.433 4.108 1.3 1.022.85 1.586 2.002 1.69 3.458h-3.484c-.052-.572-.295-1.023-.728-1.352-.416-.347-.98-.52-1.69-.52-.659 0-1.17.121-1.534.364-.347.243-.52.58-.52 1.014 0 .485.243.858.728 1.118.485.243 1.24.494 2.262.754 1.04.26 1.898.529 2.574.806.676.277 1.257.71 1.742 1.3.503.572.763 1.335.78 2.288 0 .832-.234 1.577-.702 2.236-.45.659-1.11 1.179-1.976 1.56-.85.364-1.846.546-2.99.546zm17.028-14.846c1.092 0 2.062.243 2.912.728.849.468 1.508 1.17 1.976 2.106.485.919.728 2.028.728 3.328V29h-3.64v-7.956c0-1.144-.286-2.02-.858-2.626-.572-.624-1.352-.936-2.34-.936-1.006 0-1.803.312-2.392.936-.572.607-.858 1.482-.858 2.626V29H98V9.76h3.64v6.63c.468-.624 1.092-1.11 1.872-1.456.78-.364 1.646-.546 2.6-.546zm12.977 2.314c.468-.693 1.11-1.257 1.924-1.69.832-.433 1.777-.65 2.834-.65 1.231 0 2.34.303 3.328.91 1.006.607 1.794 1.473 2.366 2.6.59 1.11.884 2.4.884 3.874 0 1.473-.294 2.782-.884 3.926-.572 1.127-1.36 2.002-2.366 2.626-.988.624-2.097.936-3.328.936-1.074 0-2.019-.208-2.834-.624-.797-.433-1.438-.988-1.924-1.664V29h-3.64V9.76h3.64v6.942zm7.618 5.044c0-.867-.182-1.612-.546-2.236-.346-.641-.814-1.127-1.404-1.456a3.687 3.687 0 00-1.872-.494c-.658 0-1.282.173-1.872.52-.572.33-1.04.815-1.404 1.456-.346.641-.52 1.395-.52 2.262s.174 1.62.52 2.262c.364.641.832 1.135 1.404 1.482.59.33 1.214.494 1.872.494.676 0 1.3-.173 1.872-.52a3.728 3.728 0 001.404-1.482c.364-.641.546-1.404.546-2.288zm13.019 7.488c-1.386 0-2.634-.303-3.744-.91a6.833 6.833 0 01-2.626-2.626c-.624-1.127-.936-2.427-.936-3.9 0-1.473.321-2.773.962-3.9a6.78 6.78 0 012.678-2.6c1.127-.624 2.384-.936 3.77-.936 1.387 0 2.644.312 3.77.936a6.595 6.595 0 012.652 2.6c.659 1.127.988 2.427.988 3.9 0 1.473-.338 2.773-1.014 3.9a6.904 6.904 0 01-2.704 2.626c-1.126.607-2.392.91-3.796.91zm0-3.172c.659 0 1.274-.156 1.846-.468.59-.33 1.058-.815 1.404-1.456.347-.641.52-1.421.52-2.34 0-1.37-.364-2.418-1.092-3.146-.71-.745-1.586-1.118-2.626-1.118-1.04 0-1.915.373-2.626 1.118-.693.728-1.04 1.777-1.04 3.146 0 1.37.338 2.427 1.014 3.172.694.728 1.56 1.092 2.6 1.092zm9.508-4.316c0-1.456.286-2.747.858-3.874.59-1.127 1.378-1.993 2.366-2.6 1.006-.607 2.124-.91 3.354-.91 1.075 0 2.011.217 2.808.65.815.433 1.465.98 1.95 1.638v-2.054h3.666V29h-3.666v-2.106c-.468.676-1.118 1.24-1.95 1.69-.814.433-1.759.65-2.834.65a6.19 6.19 0 01-3.328-.936c-.988-.624-1.776-1.5-2.366-2.626-.572-1.144-.858-2.453-.858-3.926zm11.336.052c0-.884-.173-1.638-.52-2.262-.346-.641-.814-1.127-1.404-1.456a3.68 3.68 0 00-1.898-.52c-.676 0-1.3.165-1.872.494-.572.33-1.04.815-1.404 1.456-.346.624-.52 1.37-.52 2.236 0 .867.174 1.63.52 2.288.364.641.832 1.135 1.404 1.482.59.347 1.214.52 1.872.52.676 0 1.309-.165 1.898-.494a3.773 3.773 0 001.404-1.456c.347-.641.52-1.404.52-2.288zm11.121-4.966a5.157 5.157 0 011.821-1.794c.762-.433 1.629-.65 2.599-.65v3.822h-.962c-1.143 0-2.01.269-2.599.806-.573.537-.859 1.473-.859 2.808V29h-3.64V14.596h3.64v2.236zm6.196 4.914c0-1.456.286-2.747.858-3.874.59-1.127 1.387-1.993 2.392-2.6 1.006-.607 2.124-.91 3.354-.91.936 0 1.829.208 2.678.624.85.399 1.526.936 2.028 1.612V9.76h3.692V29h-3.692v-2.132c-.45.71-1.083 1.283-1.898 1.716-.814.433-1.759.65-2.834.65a6.19 6.19 0 01-3.328-.936c-1.005-.624-1.802-1.5-2.392-2.626-.572-1.144-.858-2.453-.858-3.926zm11.336.052c0-.884-.173-1.638-.52-2.262-.346-.641-.814-1.127-1.404-1.456a3.68 3.68 0 00-1.898-.52c-.676 0-1.3.165-1.872.494-.572.33-1.04.815-1.404 1.456-.346.624-.52 1.37-.52 2.236 0 .867.174 1.63.52 2.288.364.641.832 1.135 1.404 1.482.59.347 1.214.52 1.872.52.676 0 1.309-.165 1.898-.494a3.773 3.773 0 001.404-1.456c.347-.641.52-1.404.52-2.288zM18.5 35.888c-1.033 0-2.081-.232-2.898-.71l-8.48-4.887c-3.452-2.328-3.668-2.682-3.668-6.336v-8.91c0-3.655.2-4.01 3.592-6.306l8.54-4.933c1.62-.94 4.163-.94 5.782 0l8.51 4.902c3.453 2.328 3.669 2.682 3.669 6.336v8.896c0 3.653-.2 4.008-3.592 6.305l-8.541 4.933c-.833.478-1.88.71-2.914.71zm0-30.464c-.647 0-1.28.124-1.726.386l-8.48 4.902c-2.512 1.696-2.512 1.696-2.512 4.332v8.896c0 2.636 0 2.636 2.574 4.378l8.418 4.856c.91.524 2.559.524 3.468 0l8.48-4.902c2.497-1.696 2.497-1.696 2.497-4.332v-8.896c0-2.636 0-2.636-2.575-4.378L20.227 5.81c-.447-.262-1.08-.386-1.727-.386z" fill="#000"/><path d="M18.5 25.281a5.783 5.783 0 01-5.781-5.781 5.783 5.783 0 015.781-5.781 5.783 5.783 0 015.781 5.781 5.783 5.783 0 01-5.781 5.781zm0-9.25a3.474 3.474 0 00-3.469 3.469 3.474 3.474 0 003.469 3.469 3.474 3.474 0 003.469-3.469 3.474 3.474 0 00-3.469-3.469z" fill="#000"/></svg>